<svg width="111" height="163" viewBox="0 0 111 163" fill="none" xmlns="http://www.w3.org/2000/svg">
<path fill-rule="evenodd" clip-rule="evenodd" d="M42.6475 0.99057H74.6469V31.0521H42.8788C38.7935 31.0521 35.7103 32.0927 33.6291 34.1739C31.5479 36.178 30.5073 39.1456 30.5073 43.0767V125.977H0.445763V43.0767C0.445763 37.9123 1.10095 33.2875 2.41133 29.2022C3.7217 25.1169 5.45602 21.5326 7.61428 18.4494C9.84963 15.2891 12.3933 12.6298 15.2453 10.4715C18.0973 8.23617 21.0649 6.42477 24.1481 5.03732C27.3085 3.64986 30.4688 2.64781 33.6291 2.03116C36.8665 1.33743 39.8726 0.99057 42.6475 0.99057ZM110.517 31.0521H80.5667V0.99057H110.517V31.0521ZM68.3155 162.088H36.3161L36.3161 132.027L68.0842 132.027C72.1695 132.027 75.2528 130.986 77.3339 128.905C79.4151 126.901 80.4557 123.933 80.4557 120.002L80.4557 37.1014L110.517 37.1014L110.517 120.002C110.517 125.166 109.862 129.791 108.552 133.876C107.241 137.962 105.507 141.546 103.349 144.629C101.113 147.79 98.5697 150.449 95.7177 152.607C92.8657 154.842 89.8981 156.654 86.8149 158.041C83.6546 159.429 80.4943 160.431 77.3339 161.047C74.0965 161.741 71.0904 162.088 68.3155 162.088ZM0.445758 132.027H30.3963L30.3963 162.088L0.445755 162.088L0.445758 132.027Z" fill="white"/>
</svg>
